# xmcd
#
# Track frame offsets: 
#        150
#        18382
#        36770
#        59870
#        81769
#        104429
#        130854
#        152032
#        175182
#        193312
#        214457
#        237974
#
# Disc length: 3475 seconds
#
# Revision: 1
# Processed by: cddbd v1.5.2PL0 Copyright (c) Steve Scherf et al.
# Submitted via: ExactAudioCopy v0.99pb5
#
DISCID=ad0d910c
DTITLE=Sebnem Ferah - Benim Adim Orman
DYEAR=2009
DGENRE=Jazz
TTITLE0=Merhaba
TTITLE1=Benim Adim Orman
TTITLE2=Yalniz
TTITLE3=Istiklal Caddesi Kadar
TTITLE4=Eski
TTITLE5=Mahalle
TTITLE6=Atese Yakin
TTITLE7=Serapmis
TTITLE8=Insanlik
TTITLE9=Bazi Asklar
TTITLE10=Ucurtma
TTITLE11=Eski 2
EXTD=YEAR: 2009
EXTT0=
EXTT1=
EXTT2=
EXTT3=
EXTT4=
EXTT5=
EXTT6=
EXTT7=
EXTT8=
EXTT9=
EXTT10=
EXTT11=
PLAYORDER=
